<svg width="24" height="26" viewBox="0 0 24 26" fill="none" xmlns="http://www.w3.org/2000/svg">
<path d="M0.799805 16.2002V21.0002C0.799805 23.6512 5.81422 25.8002 11.9998 25.8002C18.1854 25.8002 23.1998 23.6512 23.1998 21.0002V16.2002C23.1998 18.8512 18.1854 21.0002 11.9998 21.0002C5.81422 21.0002 0.799805 18.8512 0.799805 16.2002Z" fill="#0AAB39"/>
<path d="M0.799805 8.2002V13.0002C0.799805 15.6512 5.81422 17.8002 11.9998 17.8002C18.1854 17.8002 23.1998 15.6512 23.1998 13.0002V8.2002C23.1998 10.8512 18.1854 13.0002 11.9998 13.0002C5.81422 13.0002 0.799805 10.8512 0.799805 8.2002Z" fill="#0AAB39"/>
<path d="M23.1998 5.0002C23.1998 7.65116 18.1854 9.8002 11.9998 9.8002C5.81422 9.8002 0.799805 7.65116 0.799805 5.0002C0.799805 2.34923 5.81422 0.200195 11.9998 0.200195C18.1854 0.200195 23.1998 2.34923 23.1998 5.0002Z" fill="#0AAB39"/>
</svg>
