<svg width="23" height="25" viewBox="0 0 23 25" fill="none" xmlns="http://www.w3.org/2000/svg">
<path d="M15.9999 2H6.99988V4H15.9999V2Z" fill="#565656"/>
<path d="M15.5939 2.07471H13.7335V3.74985H15.5939V2.07471Z" fill="#565656"/>
<path d="M5.17259 5.55736C5.63515 5.55736 6.01016 5.18235 6.01016 4.71979V0.837572C6.01016 0.375009 5.63515 0 5.17259 0C4.71002 0 4.33496 0.375009 4.33496 0.837572V4.71979C4.33496 5.18235 4.71002 5.55736 5.17259 5.55736Z" fill="#565656"/>
<path d="M17.8273 5.55736C18.2899 5.55736 18.6649 5.18235 18.6649 4.71979V0.837572C18.6649 0.375009 18.2899 0 17.8273 0C17.3647 0 16.9897 0.375009 16.9897 0.837572V4.71979C16.9897 5.18235 17.3648 5.55736 17.8273 5.55736Z" fill="#565656"/>
<path d="M21.2018 2.07471H20.0609V3.74985H21.2018C21.2491 3.74985 21.2876 3.78836 21.2876 3.83566V7.15137H1.71243V3.83571C1.71243 3.78836 1.75094 3.74991 1.79824 3.74991H2.9391V2.07476H1.79824C0.827231 2.07476 0.0372314 2.86471 0.0372314 3.83577V7.98905V23.2392C0.0372314 24.2102 0.827176 25.0002 1.79824 25.0002H21.2018C22.1728 25.0002 22.9628 24.2103 22.9628 23.2392V7.98894V3.83571C22.9627 2.86471 22.1728 2.07471 21.2018 2.07471ZM21.2876 23.2392C21.2876 23.2865 21.2491 23.325 21.2018 23.325H1.79824C1.75088 23.325 1.71243 23.2865 1.71243 23.2392V8.82651H21.2876V23.2392Z" fill="#565656"/>
</svg>
