<svg width="156" height="46" viewBox="0 0 156 46" fill="none" xmlns="http://www.w3.org/2000/svg">
<path d="M21.832 32.264C21.832 35.144 19.4 37.512 16.52 37.512H10.44V27.016H16.52C19.4 27.016 21.832 29.448 21.832 32.264ZM18.824 14.088C18.824 16.84 16.52 19.144 13.768 19.144H10.44V9.032H13.768C16.52 9.032 18.824 11.272 18.824 14.088ZM31.624 32.52C31.624 26.632 27.656 22.728 22.792 21.576C26.056 20.104 27.976 16.776 27.976 12.36C27.976 6.408 23.24 1.48 15.816 1.48H0.84V45H18.44C26.76 45 31.624 40.008 31.624 32.52ZM94.94 29.448H95.004L105.372 45H117.532L105.052 29C110.556 27.656 114.972 22.792 114.972 15.432C114.972 7.176 108.7 1.48 101.66 1.48H94.94H92.572H85.34V45H94.94V29.448ZM100.06 9.032C102.876 9.032 105.82 11.464 105.82 15.432C105.82 19.592 102.876 21.896 100.06 21.896H94.94V9.032H100.06ZM130.062 36.168V10.376H132.942C140.366 10.376 145.358 16.008 145.358 23.24C145.358 30.472 140.302 36.168 132.942 36.168H130.062ZM120.59 1.48V45H133.518C145.87 45 155.15 35.528 155.15 23.24C155.15 10.952 145.806 1.48 133.518 1.48H120.59Z" fill="#292929"/>
<path d="M69.69 23.176C69.69 29.896 63.61 36.04 56.89 36.04C50.17 36.04 44.09 29.896 44.09 23.176C44.09 16.456 50.17 10.376 56.89 10.376C63.61 10.376 69.69 16.456 69.69 23.176ZM79.29 23.24C79.29 11.208 68.922 0.839996 56.89 0.839996C44.858 0.839996 34.49 11.208 34.49 23.24C34.49 35.272 44.858 45.64 56.89 45.64C68.922 45.64 79.29 35.272 79.29 23.24Z" fill="#7ED957"/>
</svg>
