<svg width="28" height="25" viewBox="0 0 28 25" fill="none" xmlns="http://www.w3.org/2000/svg">
<g clip-path="url(#clip0_172_9373)">
<path d="M6.67418 20.8853H6.69073L9.37109 25.1161H12.5147L9.28837 20.7635C10.7113 20.3978 11.8529 19.0746 11.8529 17.0724C11.8529 14.8264 10.2315 13.2769 8.41146 13.2769H6.67418H6.062H4.19238V25.1161H6.67418V20.8853ZM7.99782 15.3313C8.72582 15.3313 9.48691 15.9929 9.48691 17.0724C9.48691 18.2041 8.72582 18.8309 7.99782 18.8309H6.67418V15.3313H7.99782ZM17.7395 22.7135V15.6969H18.484C20.4033 15.6969 21.6939 17.2291 21.6939 19.1965C21.6939 21.1639 20.3868 22.7135 18.484 22.7135H17.7395ZM15.2908 13.2769V25.1161H18.6329C21.8262 25.1161 24.2253 22.5394 24.2253 19.1965C24.2253 15.8536 21.8097 13.2769 18.6329 13.2769H15.2908Z" fill="#292929"/>
<path d="M9.60563 8.81205C9.60563 9.59554 8.97691 10.2397 8.23236 10.2397H6.66054V7.38437H8.23236C8.97691 7.38437 9.60563 8.04598 9.60563 8.81205ZM8.828 3.86741C8.828 4.61607 8.23236 5.24286 7.52091 5.24286H6.66054V2.49196H7.52091C8.23236 2.49196 8.828 3.10134 8.828 3.86741ZM12.1371 8.8817C12.1371 7.27991 11.1113 6.21786 9.85382 5.90446C10.6976 5.50402 11.194 4.59866 11.194 3.39732C11.194 1.77812 9.96963 0.4375 8.05036 0.4375H4.17871V12.2768H8.72872C10.8796 12.2768 12.1371 10.9187 12.1371 8.8817Z" fill="#292929"/>
<path d="M22.1205 6.19277C22.1205 7.99746 20.5689 9.64746 18.8539 9.64746C17.1389 9.64746 15.5872 7.99746 15.5872 6.19277C15.5872 4.38809 17.1389 2.75527 18.8539 2.75527C20.5689 2.75527 22.1205 4.38809 22.1205 6.19277ZM24.5705 6.20996C24.5705 2.97871 21.9245 0.194336 18.8539 0.194336C15.7832 0.194336 13.1372 2.97871 13.1372 6.20996C13.1372 9.44121 15.7832 12.2256 18.8539 12.2256C21.9245 12.2256 24.5705 9.44121 24.5705 6.20996Z" fill="#7ED957"/>
</g>
<defs>
<clipPath id="clip0_172_9373">
<rect width="28" height="25" fill="white"/>
</clipPath>
</defs>
</svg>
