<svg width="26" height="28" viewBox="0 0 26 28" fill="none" xmlns="http://www.w3.org/2000/svg">
<path d="M25.0834 22.8875C22.1078 21.5437 21.9946 15.7758 21.9924 15.6302V11.7607C21.9924 8.03638 19.7166 4.8339 16.4827 3.47031C16.4757 1.55556 14.9162 0 13.0001 0C11.0838 0 9.5244 1.55565 9.5174 3.47022C6.28358 4.83381 4.00775 8.03629 4.00775 11.7606V15.6302C4.00564 15.7757 3.89236 21.5436 0.916716 22.8874C0.577742 23.0405 0.391441 23.4095 0.469813 23.7731C0.548094 24.1368 0.869683 24.3965 1.24169 24.3965H8.78523C8.93987 25.2473 9.34212 26.0387 9.95735 26.6797C10.7745 27.531 11.8551 27.9999 12.9999 27.9999C14.1449 27.9999 15.2255 27.531 16.0425 26.6797C16.6578 26.0386 17.0601 25.2472 17.2146 24.3965H24.7582C25.1302 24.3965 25.4517 24.1369 25.5301 23.7731C25.6085 23.4095 25.4223 23.0406 25.0834 22.8875ZM21.1637 20.1243C21.4765 21.0726 21.9194 22.025 22.5475 22.8175H3.45255C4.08054 22.0251 4.52346 21.0728 4.83627 20.1243H21.1637ZM13.0001 1.57912C13.8668 1.57912 14.5997 2.16154 14.829 2.95542C14.2382 2.8329 13.6265 2.7683 13.0001 2.7683C12.3736 2.7683 11.7619 2.83285 11.1711 2.95542C11.4005 2.16159 12.1333 1.57912 13.0001 1.57912ZM5.58687 15.635V11.7605C5.58687 7.67293 8.91238 4.34742 13.0001 4.34742C17.0877 4.34742 20.4133 7.67293 20.4133 11.7605V15.6415C20.4143 15.7602 20.4328 17.0085 20.7474 18.5451H5.25256C5.56733 17.007 5.58591 15.7566 5.58687 15.635ZM13.0001 26.4209C11.7949 26.4209 10.7431 25.552 10.4055 24.3966H15.5945C15.2569 25.552 14.2053 26.4209 13.0001 26.4209Z" fill="#565656"/>
<path d="M13 5.45508C9.60296 5.45508 6.83923 8.21871 6.83923 11.6157C6.83923 12.0518 7.19276 12.4053 7.62882 12.4053C8.06488 12.4053 8.4184 12.0518 8.4184 11.6157C8.4184 9.08946 10.4737 7.0342 13.0001 7.0342C13.4361 7.0342 13.7896 6.68068 13.7896 6.24462C13.7896 5.80851 13.4361 5.45508 13 5.45508Z" fill="#565656"/>
</svg>
