<svg width="9" height="9" viewBox="0 0 9 9" fill="none" xmlns="http://www.w3.org/2000/svg">
<g clip-path="url(#clip0_172_9224)">
<path d="M8.98809 3.46861C8.95742 3.37459 8.87437 3.30751 8.77612 3.29704L5.89607 3.00477L4.72824 0.356636C4.68834 0.266861 4.59881 0.208008 4.50006 0.208008C4.40131 0.208008 4.31178 0.266362 4.27188 0.357135L3.1038 3.00502L0.224249 3.29704C0.125995 3.30701 0.0427031 3.37484 0.0122792 3.46861C-0.0183941 3.56262 0.00953602 3.66586 0.0833515 3.7317L2.24096 5.66138L1.62924 8.49005C1.60854 8.58656 1.64644 8.68631 1.72649 8.74442C1.77013 8.77609 1.82151 8.79205 1.87313 8.79205C1.91627 8.79205 1.95966 8.78083 1.99856 8.75788L4.50031 7.30152L7.00155 8.75788C7.08684 8.80701 7.19357 8.80227 7.27362 8.74317C7.35343 8.68606 7.39183 8.58532 7.37113 8.48881L6.75941 5.65988L8.91726 3.73045C8.99058 3.66561 9.01876 3.56237 8.98809 3.46861ZM6.31826 5.38606C6.25143 5.44591 6.22175 5.53694 6.24071 5.62472L6.76365 8.04242L4.6255 6.79803C4.54794 6.75265 4.45218 6.75265 4.37462 6.79803L2.23597 8.04242L2.75891 5.62472C2.77786 5.53694 2.74819 5.44591 2.68136 5.38606L0.836967 3.73694L3.29831 3.48706C3.38759 3.47833 3.4649 3.42123 3.50131 3.33943L4.49981 1.07584L5.49806 3.33943C5.53447 3.42123 5.61178 3.47833 5.70106 3.48706L8.1624 3.73694L6.31826 5.38606Z" fill="#0AAB39"/>
<g clip-path="url(#clip1_172_9224)">
<path d="M8.98809 3.46861C8.95742 3.37459 8.87437 3.30751 8.77612 3.29704L5.89607 3.00477L4.72824 0.356636C4.68834 0.266861 4.59881 0.208008 4.50006 0.208008C4.40131 0.208008 4.31178 0.266362 4.27188 0.357135L3.1038 3.00502L0.224249 3.29704C0.125995 3.30701 0.0427031 3.37484 0.0122792 3.46861C-0.0183941 3.56262 0.00953602 3.66586 0.0833515 3.7317L2.24096 5.66138L1.62924 8.49005C1.60854 8.58656 1.64644 8.68631 1.72649 8.74442C1.77013 8.77609 1.82151 8.79205 1.87313 8.79205C1.91627 8.79205 1.95966 8.78083 1.99856 8.75788L4.50031 7.30152L7.00155 8.75788C7.08684 8.80701 7.19357 8.80227 7.27362 8.74317C7.35343 8.68606 7.39183 8.58532 7.37113 8.48881L6.75941 5.65988L8.91726 3.73045C8.99058 3.66561 9.01876 3.56237 8.98809 3.46861ZM6.31826 5.38606C6.25143 5.44591 6.22175 5.53694 6.24071 5.62472L6.76365 8.04242L4.6255 6.79803C4.54794 6.75265 3.37587 2.95938 3.29831 3.00477L1.87313 8.48881L2.75891 5.62472C2.77786 5.53694 2.74819 5.44591 2.68136 5.38606L4.5 7.00003L6.76365 8.04242L6.24071 4.68963L3.29831 3.48706C3.38759 3.47833 3.4649 3.42123 3.50131 3.33943L1.87313 8.48881L5.49806 3.33943C5.53447 3.42123 4.91072 3.3307 5 3.33943L3.5 5.00003L6.31826 5.38606Z" fill="#0AAB39"/>
</g>
</g>
<defs>
<clipPath id="clip0_172_9224">
<rect width="9" height="9" fill="white"/>
</clipPath>
<clipPath id="clip1_172_9224">
<rect width="9" height="9" fill="white"/>
</clipPath>
</defs>
</svg>
