<svg width="10" height="9" viewBox="0 0 10 9" fill="none" xmlns="http://www.w3.org/2000/svg">
<path d="M7.98077 2.63144H1.91225C1.80099 2.63144 1.70996 2.72025 1.70996 2.82879V3.74976C1.70996 3.8583 1.80099 3.94711 1.91225 3.94711H4.27223V7.69677C4.27223 7.80531 4.36326 7.89412 4.47451 7.89412H5.41851C5.52976 7.89412 5.62079 7.80531 5.62079 7.69677V3.94711H7.98077C8.09203 3.94711 8.18306 3.8583 8.18306 3.74976V2.82879C8.18306 2.72025 8.09203 2.63144 7.98077 2.63144ZM7.98077 0.526367H1.91225C1.80099 0.526367 1.70996 0.615175 1.70996 0.723718V1.64469C1.70996 1.75323 1.80099 1.84204 1.91225 1.84204H7.98077C8.09203 1.84204 8.18306 1.75323 8.18306 1.64469V0.723718C8.18306 0.615175 8.09203 0.526367 7.98077 0.526367Z" fill="black"/>
</svg>
